<svg xmlns="http://www.w3.org/2000/svg" xmlns:xlink="http://www.w3.org/1999/xlink" viewBox="0 0 851.67 433.03"><defs><linearGradient id="a" x1="77.21" y1="360.28" x2="307.97" y2="127.44" gradientTransform="rotate(6.46 188.308 248.284)" gradientUnits="userSpaceOnUse"><stop offset="0" stop-color="#a55a0b"/><stop offset=".02" stop-color="#b06a1a"/><stop offset=".06" stop-color="#c9913d"/><stop offset=".1" stop-color="#deb059"/><stop offset=".15" stop-color="#ecc66d"/><stop offset=".19" stop-color="#f5d379"/><stop offset=".22" stop-color="#f8d87d"/><stop offset=".27" stop-color="#f4d278"/><stop offset=".34" stop-color="#e9c269"/><stop offset=".41" stop-color="#d7a850"/><stop offset=".45" stop-color="#c9933d"/><stop offset=".57" stop-color="#c37b1b"/><stop offset=".75" stop-color="#e7ba5d"/><stop offset=".84" stop-color="#f8d87d"/><stop offset=".86" stop-color="#f4d377"/><stop offset=".9" stop-color="#eac367"/><stop offset=".94" stop-color="#d9a94d"/><stop offset=".98" stop-color="#c18628"/><stop offset="1" stop-color="#b47214"/></linearGradient><linearGradient id="b" x1="109.74" y1="392.52" x2="340.5" y2="159.68" xlink:href="#a"/><linearGradient id="c" x1="37.42" y1="320.84" x2="268.18" y2="88" xlink:href="#a"/><linearGradient id="d" x1="-20.33" y1="263.61" x2="210.43" y2="30.77" xlink:href="#a"/><linearGradient id="e" x1="-45.09" y1="239.07" x2="185.67" y2="6.23" xlink:href="#a"/><linearGradient id="f" x1="-15.53" y1="268.37" x2="215.23" y2="35.53" xlink:href="#a"/><linearGradient id="g" x1="44.68" y1="328.04" x2="275.44" y2="95.19" xlink:href="#a"/><linearGradient id="h" x1="117" y1="399.71" x2="347.76" y2="166.87" xlink:href="#a"/><linearGradient id="i" x1="174.75" y1="456.94" x2="405.51" y2="224.11" xlink:href="#a"/><linearGradient id="j" x1="199.51" y1="481.49" x2="430.27" y2="248.65" xlink:href="#a"/><linearGradient id="k" x1="169.94" y1="452.18" x2="400.7" y2="219.34" xlink:href="#a"/><linearGradient id="l" x1="113.52" y1="396.27" x2="344.27" y2="163.45" xlink:href="#a"/><linearGradient id="m" x1="32.79" y1="316.26" x2="263.53" y2="83.43" xlink:href="#a"/><linearGradient id="n" x1="-30.98" y1="253.06" x2="199.8" y2="20.19" xlink:href="#a"/><linearGradient id="o" x1="-53.4" y1="230.79" x2="177.31" y2="-2" xlink:href="#a"/><linearGradient id="p" x1="-26.02" y1="258.06" x2="204.8" y2="25.17" xlink:href="#a"/><linearGradient id="q" x1="40.91" y1="324.26" x2="271.65" y2="91.44" xlink:href="#a"/><linearGradient id="r" x1="121.64" y1="404.28" x2="352.39" y2="171.46" xlink:href="#a"/><linearGradient id="s" x1="185.39" y1="467.51" x2="416.16" y2="234.66" xlink:href="#a"/><linearGradient id="t" x1="207.82" y1="489.76" x2="438.63" y2="256.88" xlink:href="#a"/><linearGradient id="u" x1="180.39" y1="462.53" x2="411.13" y2="229.72" xlink:href="#a"/><linearGradient id="v" x1="77.21" y1="360.28" x2="307.97" y2="127.44" xlink:href="#a"/><linearGradient id="w" x1="77.21" y1="360.28" x2="307.97" y2="127.44" xlink:href="#a"/><linearGradient id="x" x1="114.47" y1="323.59" x2="258.61" y2="202.64" xlink:href="#a"/><linearGradient id="y" x1="199.83" y1="301.76" x2="227.04" y2="278.16" gradientUnits="userSpaceOnUse"><stop offset=".12" stop-color="#f8d87d"/><stop offset=".19" stop-color="#f4d377"/><stop offset=".29" stop-color="#eac367"/><stop offset=".39" stop-color="#d9a94d"/><stop offset=".5" stop-color="#c18628"/><stop offset=".55" stop-color="#b47214"/></linearGradient><linearGradient id="z" x1="151.12" y1="305.33" x2="201.31" y2="261.53" gradientUnits="userSpaceOnUse"><stop offset=".22" stop-color="#f8d87d"/><stop offset=".27" stop-color="#f4d278"/><stop offset=".34" stop-color="#e9c269"/><stop offset=".41" stop-color="#d7a850"/><stop offset=".45" stop-color="#c9933d"/><stop offset=".57" stop-color="#c37b1b"/><stop offset=".75" stop-color="#e7ba5d"/><stop offset=".84" stop-color="#f8d87d"/><stop offset=".86" stop-color="#f4d377"/><stop offset=".9" stop-color="#eac367"/><stop offset=".94" stop-color="#d9a94d"/><stop offset=".98" stop-color="#c18628"/><stop offset="1" stop-color="#b47214"/></linearGradient><clipPath id="A"><path d="M437.84 249.55a47.09 47.09 0 01-17.29-2.93 46.11 46.11 0 01-14.37-9.31 6.3 6.3 0 01-1.53-2 5.53 5.53 0 01-.6-2.52 5.46 5.46 0 011.53-3.8 5 5 0 013.79-1.66 4.62 4.62 0 013.33 1.46 37.73 37.73 0 0011.24 7.72 33.47 33.47 0 0013.64 2.66 28.16 28.16 0 0010.51-1.86 18.42 18.42 0 007.45-5.19 11.67 11.67 0 002.8-7.72 12.94 12.94 0 00-3-8.78 22.46 22.46 0 00-8.25-5.72 79.37 79.37 0 00-12.17-4 79.47 79.47 0 01-11.24-3.53 33.35 33.35 0 01-8.92-5.19 21.18 21.18 0 01-5.85-7.58 24.93 24.93 0 01-2.07-10.6 22.33 22.33 0 014-13.24A26.38 26.38 0 01422 157a39.36 39.36 0 0116.29-3.2 44.35 44.35 0 0115.37 2.66 29.79 29.79 0 0111.64 7.32c1.78 1.69 2.67 3.37 2.67 5.06a4.94 4.94 0 01-1.67 3.52 5.22 5.22 0 01-3.79 1.67 4.18 4.18 0 01-2.66-.94 22.79 22.79 0 00-5.79-4.52 36.23 36.23 0 00-7.58-3.19 28.79 28.79 0 00-8.19-1.2 29.72 29.72 0 00-10.77 1.8 16.84 16.84 0 00-7.25 5 11.82 11.82 0 00-2.6 7.71 12 12 0 002.93 8.32 21.49 21.49 0 007.85 5.32 83.4 83.4 0 0010.91 3.66 106 106 0 0112 3.66 36.66 36.66 0 019.51 5.12 20.55 20.55 0 016.19 7.79 27.6 27.6 0 012.2 11.64 21.75 21.75 0 01-4.13 13 28.25 28.25 0 01-11.24 9 37.42 37.42 0 01-16.05 3.35zm81.43-80.63L488 245a5.17 5.17 0 01-1.86 2.59 4.57 4.57 0 01-2.79 1 4.66 4.66 0 01-3.73-1.4 5.46 5.46 0 01-1.33-3.26 8.1 8.1 0 01.27-2L513 158.28a6.11 6.11 0 012.19-2.8 4.9 4.9 0 013.13-.8 5.61 5.61 0 013.13.93 4.83 4.83 0 011.93 2.67l34.32 82.89a6 6 0 01.4 2.13 5 5 0 01-1.59 3.86 5.23 5.23 0 01-3.6 1.46 5 5 0 01-3.06-1 6 6 0 01-2-2.73l-31.67-76.1zm-24.61 54.42l4.52-10.34h39.52l2 10.38zm69.45-58a5.5 5.5 0 01-3.86-1.47 4.82 4.82 0 01-1.59-3.72 4.63 4.63 0 011.59-3.66 5.68 5.68 0 013.86-1.4H626a5.49 5.49 0 013.86 1.47 4.79 4.79 0 011.6 3.72 4.61 4.61 0 01-1.6 3.66 5.66 5.66 0 01-3.86 1.4zM595 248.22a5.35 5.35 0 01-5.59-5.45v-82.1h11.29v82.1a5.25 5.25 0 01-1.59 3.85 5.58 5.58 0 01-4.11 1.6zM716.19 155a5.69 5.69 0 014 1.46 4.69 4.69 0 011.6 3.6 6.87 6.87 0 01-.53 2.52l-34.73 82.23a5.84 5.84 0 01-2.19 2.6 5.67 5.67 0 01-3 .86 6.47 6.47 0 01-2.86-1 5.06 5.06 0 01-2.06-2.46L642 162.67a4.84 4.84 0 01-.4-1.2 6.66 6.66 0 01-.13-1.33 4.72 4.72 0 011.79-3.86 5.65 5.65 0 013.53-1.46q3.59 0 5.19 3.72l31.8 75.84h-3.06l30.6-76q1.54-3.43 4.87-3.38zm32.6 87.82a5.17 5.17 0 01-1.66 3.85 5.49 5.49 0 01-3.93 1.6 5.35 5.35 0 01-5.59-5.45v-82.28a5.23 5.23 0 011.6-3.86 5.55 5.55 0 014.12-1.6 5.46 5.46 0 015.46 5.46zm28.87 5.45a5.35 5.35 0 01-5.59-5.45v-82.28a5.23 5.23 0 011.6-3.86 5.55 5.55 0 014.12-1.6 5.11 5.11 0 014 1.6 5.49 5.49 0 011.47 3.86v82.23a5.35 5.35 0 01-5.59 5.45zM837.4 155a4.53 4.53 0 013.59 1.73 5.49 5.49 0 011.47 3.59 5 5 0 01-1.6 3.59l-58.81 55.49-.93-12.4 52.16-50a5.52 5.52 0 014.12-2zm.4 93.54a4.57 4.57 0 01-3.86-2l-35.52-45 8.25-8.38 35.92 46.17a5.85 5.85 0 011.33 3.59 4.79 4.79 0 01-2 4.12 6.86 6.86 0 01-4.12 1.45zm-355.34 37a2.61 2.61 0 012 .83 2.68 2.68 0 01.79 1.92 3.57 3.57 0 01-.1.89 2.79 2.79 0 01-.38.83l-16 22.27.9-3.37V331a2.82 2.82 0 01-.79 2 2.53 2.53 0 01-1.89.82 2.67 2.67 0 01-2-.82 2.78 2.78 0 01-.79-2v-21.66l.41 1.86-15.4-20.9a4.49 4.49 0 01-.61-1.06 2.68 2.68 0 01-.21-1 2.37 2.37 0 011-2 3.19 3.19 0 011.95-.76 2.68 2.68 0 012.27 1.24l14.23 19.52-1.31-.21 13.61-19.24a2.85 2.85 0 012.32-1.3zm51.62 24.26a27.17 27.17 0 01-1.72 9.8 24.06 24.06 0 01-4.84 7.87 22 22 0 01-7.36 5.22 24.08 24.08 0 01-18.56 0 22 22 0 01-7.35-5.22 23.49 23.49 0 01-4.81-7.87 29.23 29.23 0 010-19.59 23.49 23.49 0 014.81-7.87 22 22 0 017.35-5.22 24.08 24.08 0 0118.56 0 22 22 0 017.36 5.22 24.06 24.06 0 014.84 7.87 27.15 27.15 0 011.72 9.74zm-6 0a21.72 21.72 0 00-2.2-9.93 17 17 0 00-6.08-6.84A17.4 17.4 0 00502 293a17 17 0 00-6.08 6.81 23.6 23.6 0 000 19.9 16.82 16.82 0 006.08 6.83 17.34 17.34 0 0017.87 0 16.89 16.89 0 006.08-6.83 21.73 21.73 0 002.15-9.96zm37 24.75a25.29 25.29 0 01-9.83-1.89 24.2 24.2 0 01-13.16-13.13 26 26 0 010-19.45 24.2 24.2 0 0113.16-13.13 25.29 25.29 0 019.83-1.89 28.51 28.51 0 016.77.79 19.66 19.66 0 015.88 2.44 2.32 2.32 0 011 1 2.69 2.69 0 01.34 1.27 2.75 2.75 0 01-.79 2 2.46 2.46 0 01-1.82.83 3.38 3.38 0 01-.83-.11 2.76 2.76 0 01-.75-.31 23 23 0 00-4.61-1.75 20.62 20.62 0 00-5.22-.65 18.81 18.81 0 00-9.73 2.54 18.55 18.55 0 00-6.77 6.91 20.66 20.66 0 000 19.59 18.55 18.55 0 006.77 6.91 18.81 18.81 0 009.73 2.54 22 22 0 005.64-.76 20.36 20.36 0 004.94-1.92l-.41 1.65v-14.5l1 1h-10.38a2.82 2.82 0 01-2-.79 2.6 2.6 0 01-.82-2 2.68 2.68 0 01.82-2 2.78 2.78 0 012-.79h12.5a2.59 2.59 0 012 .82 2.78 2.78 0 01.79 2v15.87a2.88 2.88 0 01-.37 1.48 3.31 3.31 0 01-1 1.07 27.79 27.79 0 01-6.84 3.16 26 26 0 01-7.84 1.15zm39.86 0A24.46 24.46 0 01596 333a24 24 0 01-7.42-4.81 3.06 3.06 0 01-.79-1 2.85 2.85 0 01.48-3.26 2.56 2.56 0 012-.86 2.33 2.33 0 011.71.76 19.63 19.63 0 005.81 4 17.32 17.32 0 007 1.38 14.59 14.59 0 005.43-1 9.67 9.67 0 003.85-2.69 6 6 0 001.44-4A6.7 6.7 0 00614 317a11.57 11.57 0 00-4.26-3 41.8 41.8 0 00-6.29-2.07 40.92 40.92 0 01-5.81-1.82 17.38 17.38 0 01-4.6-2.68 10.85 10.85 0 01-3-3.92 12.73 12.73 0 01-1.07-5.46 11.6 11.6 0 012.06-6.84 13.71 13.71 0 015.74-4.57 20.37 20.37 0 018.42-1.65 23 23 0 017.94 1.37 15.41 15.41 0 016 3.78 3.72 3.72 0 011.38 2.62 2.57 2.57 0 01-.86 1.82 2.71 2.71 0 01-2 .86 2.18 2.18 0 01-1.37-.48 11.87 11.87 0 00-3-2.34 18.45 18.45 0 00-3.92-1.65 15 15 0 00-4.23-.62 15.41 15.41 0 00-5.57.93 8.75 8.75 0 00-3.74 2.58 6.08 6.08 0 00-1.34 4 6.18 6.18 0 001.51 4.3 11.18 11.18 0 004 2.75 44.31 44.31 0 005.64 1.89 55.26 55.26 0 016.22 1.89 18.84 18.84 0 014.92 2.65 10.53 10.53 0 013.19 4 14.13 14.13 0 011.14 6 11.24 11.24 0 01-2.13 6.74 14.63 14.63 0 01-5.81 4.67 19.3 19.3 0 01-8.22 1.75zm28.32-48.8a2.72 2.72 0 012 .82 2.76 2.76 0 01.82 2V331a2.69 2.69 0 01-.86 2 2.82 2.82 0 01-2 .82 2.74 2.74 0 01-2.09-.82 2.78 2.78 0 01-.79-2v-42.48a2.72 2.72 0 01.82-2 2.88 2.88 0 012.1-.82zm-.27 21h32l-.07 5.36h-32.1zm31.89-21a2.78 2.78 0 012.1.82 2.82 2.82 0 01.79 2V331a2.73 2.73 0 01-.83 2 2.88 2.88 0 01-2.13.82 2.7 2.7 0 01-2-.82 2.73 2.73 0 01-.83-2v-42.48a2.69 2.69 0 01.86-2 2.82 2.82 0 012.04-.82zm31.55 7.15l-16.15 39.31a2.73 2.73 0 01-1 1.34 2.34 2.34 0 01-1.44.52 2.39 2.39 0 01-1.92-.72 2.8 2.8 0 01-.69-1.69 3.91 3.91 0 01.14-1l17.8-43.23a3.17 3.17 0 011.13-1.45 2.53 2.53 0 011.62-.41 2.85 2.85 0 011.61.48 2.45 2.45 0 011 1.38l17.73 42.82a3.06 3.06 0 01.21 1.1 2.57 2.57 0 01-.83 2 2.64 2.64 0 01-1.85.76 2.5 2.5 0 01-1.58-.52 3 3 0 01-1-1.41l-16.36-39.31zM683.71 321l2.34-5.36h20.41l1 5.36zm66.88 7.42a2.8 2.8 0 012 .79 2.61 2.61 0 01.83 2 2.52 2.52 0 01-.83 1.93 2.85 2.85 0 01-2 .75h-23.78a2.68 2.68 0 01-2-.82 2.78 2.78 0 01-.79-2v-42.55a2.73 2.73 0 01.83-2 2.88 2.88 0 012.13-.82 2.8 2.8 0 012.81 2.82v41.1l-1.37-1.24zM778 292.85l-16.16 39.31a2.65 2.65 0 01-1 1.34 2.34 2.34 0 01-1.44.52 2.43 2.43 0 01-1.93-.72 2.85 2.85 0 01-.68-1.69 4.33 4.33 0 01.13-1l17.81-43.23a3.17 3.17 0 011.13-1.45 2.53 2.53 0 011.62-.41 2.85 2.85 0 011.61.48 2.5 2.5 0 011 1.38l17.73 42.82a3.06 3.06 0 01.21 1.1 2.57 2.57 0 01-.83 2 2.65 2.65 0 01-1.85.76 2.5 2.5 0 01-1.58-.52 3.08 3.08 0 01-1-1.41l-16.35-39.31zM765.23 321l2.34-5.36H788l1 5.36z" fill="none"/></clipPath></defs><g data-name="Layer 2"><path d="M141.42 400.75a124.27 124.27 0 01-19.72-13.94 27.84 27.84 0 01-5.13-5.54 12.61 12.61 0 01-2-7.61 9.64 9.64 0 013.9-7 10.25 10.25 0 018-1.38 7.29 7.29 0 013.92 1.83 8.21 8.21 0 012.21 3.76 15.45 15.45 0 01-.18 8 26.89 26.89 0 01-8.2 13 31.13 31.13 0 01-13.75 7 40.73 40.73 0 01-7.67.89c-2.44 0-4.89.08-7.33.05-4.48 0-8.94-.26-13.31-.38-1.59-4.06-3.35-8.17-4.87-12.38-.85-2.29-1.65-4.6-2.44-6.91a41.55 41.55 0 01-1.77-7.52A31 31 0 0175 357.26a26.78 26.78 0 019.42-12.12 15.41 15.41 0 017.47-2.89 8.26 8.26 0 014.29.8 7.33 7.33 0 013 3.07 10.27 10.27 0 011.41 7.95 9.66 9.66 0 01-5.31 6.06 12.7 12.7 0 01-7.82.72 27.5 27.5 0 01-7-3 123.32 123.32 0 01-19.82-13.81A124.1 124.1 0 0153 321.21a27.62 27.62 0 01-.89-7.49 12.59 12.59 0 012.86-7.32 9.63 9.63 0 017.3-3.41 10.24 10.24 0 017.24 3.56 7.31 7.31 0 012.1 3.79 8 8 0 01-.43 4.34 15.4 15.4 0 01-4.84 6.37A26.93 26.93 0 0152 326.73a31 31 0 01-15.23-2.42 39.22 39.22 0 01-6.73-3.79c-2-1.4-4-2.8-6-4.26-3.62-2.63-7.07-5.47-10.54-8.13 1.11-4.22 2.09-8.58 3.34-12.88.65-2.36 1.37-4.69 2.09-7a39.8 39.8 0 013-7.12 31 31 0 0110.54-11.26 26.81 26.81 0 0114.75-4.26 15.3 15.3 0 017.78 2.02 8.09 8.09 0 013 3.16 7.29 7.29 0 01.66 4.28 10.2 10.2 0 01-3.53 7.26 9.65 9.65 0 01-7.85 1.79 12.69 12.69 0 01-6.76-4 27.83 27.83 0 01-3.89-6.46 123.57 123.57 0 01-7.9-22.83 123.93 123.93 0 017.16-23.06 27.33 27.33 0 013.68-6.59 12.64 12.64 0 016.62-4.24 9.64 9.64 0 017.91 1.53 10.25 10.25 0 013.76 7.14 7.27 7.27 0 01-.52 4.3 8.14 8.14 0 01-2.9 3.26 15.31 15.31 0 01-7.66 2.3 26.87 26.87 0 01-14.89-3.78A31.2 31.2 0 0121 220.75a40.1 40.1 0 01-3.22-7c-.79-2.31-1.58-4.62-2.32-6.95-1.38-4.26-2.51-8.58-3.75-12.77 3.38-2.77 6.74-5.72 10.28-8.47 1.91-1.51 3.86-3 5.82-4.45a40.74 40.74 0 016.6-4 31.08 31.08 0 0115.15-2.91A26.86 26.86 0 0164 179.38a15.4 15.4 0 015 6.21 8.07 8.07 0 01.57 4.33 7.26 7.26 0 01-2 3.85 10.25 10.25 0 01-7.12 3.79 9.62 9.62 0 01-7.4-3.17 12.53 12.53 0 01-3.1-7.22 27.19 27.19 0 01.65-7.52 123 123 0 017-23.11A123.34 123.34 0 0177 142.09a27.57 27.57 0 016.85-3.17 12.67 12.67 0 017.85.46 9.6 9.6 0 015.49 5.89 10.2 10.2 0 01-1.15 8 7.14 7.14 0 01-2.95 3.16 8.11 8.11 0 01-4.26.94 15.38 15.38 0 01-7.55-2.64 26.91 26.91 0 01-9.82-11.81 31.07 31.07 0 01-2.4-15.24 39.83 39.83 0 011.52-7.57c.72-2.34 1.43-4.67 2.21-7 1.38-4.26 3-8.42 4.47-12.54 4.36-.25 8.82-.67 13.29-.81 2.44-.1 4.89-.14 7.33-.18a40.91 40.91 0 017.7.64 31.09 31.09 0 0114 6.55 26.88 26.88 0 018.62 12.72 15.34 15.34 0 01.43 8 8.12 8.12 0 01-2.08 3.84 7.31 7.31 0 01-3.86 1.95 10.2 10.2 0 01-8-1.12 9.61 9.61 0 01-4.13-6.91 12.59 12.59 0 011.74-7.67 27.73 27.73 0 014.94-5.7 124.2 124.2 0 0119.27-14.57 123.35 123.35 0 0124.15-.31 27.49 27.49 0 017.4 1.46 12.6 12.6 0 016.08 5 9.59 9.59 0 011 8 10.23 10.23 0 01-5.62 5.79 7.26 7.26 0 01-4.25.82 8.12 8.12 0 01-4-1.75 15.32 15.32 0 01-4.55-6.57 26.83 26.83 0 01-1-15.33 31 31 0 017-13.74 40.71 40.71 0 015.69-5.23c2-1.47 3.91-2.93 5.9-4.35 3.61-2.64 7.38-5 11-7.52 3.68 2.36 7.52 4.64 11.23 7.16 2 1.35 4 2.76 6 4.16a40.46 40.46 0 015.85 5 31.06 31.06 0 017.45 13.51 26.85 26.85 0 01-.5 15.35 15.43 15.43 0 01-4.34 6.72 8.28 8.28 0 01-3.94 1.88 7.33 7.33 0 01-4.27-.69 10.2 10.2 0 01-5.81-5.61 9.61 9.61 0 01.72-8 12.64 12.64 0 015.91-5.18 27.76 27.76 0 017.36-1.7 124.13 124.13 0 0124.15-.47 124.72 124.72 0 0119.72 13.94 27.84 27.84 0 015.13 5.54 12.6 12.6 0 012 7.61 9.58 9.58 0 01-3.9 7 10.22 10.22 0 01-8 1.38 7.29 7.29 0 01-3.92-1.83 8.12 8.12 0 01-2.21-3.76 15.35 15.35 0 01.18-8 26.82 26.82 0 018.2-13 31.09 31.09 0 0113.74-7 40.93 40.93 0 017.68-.89c2.44 0 4.89-.08 7.33 0 4.47 0 8.94.26 13.3.38 1.59 4.06 3.36 8.17 4.88 12.38.85 2.29 1.64 4.6 2.44 6.91a40.71 40.71 0 011.76 7.52 31 31 0 01-1.91 15.31 26.8 26.8 0 01-9.43 12.12 15.34 15.34 0 01-7.46 2.89 8.14 8.14 0 01-4.29-.8 7.27 7.27 0 01-3.05-3.07 10.23 10.23 0 01-1.41-7.95 9.65 9.65 0 015.3-6.06 12.74 12.74 0 017.83-.72 27.82 27.82 0 016.95 2.95 123.29 123.29 0 0119.81 13.82 123 123 0 017.77 22.87 27.62 27.62 0 01.89 7.49 12.59 12.59 0 01-2.86 7.32 9.63 9.63 0 01-7.3 3.41 10.22 10.22 0 01-7.24-3.56 7.18 7.18 0 01-2.1-3.79 8 8 0 01.43-4.34 15.32 15.32 0 014.84-6.37 26.93 26.93 0 0114.27-5.68 31 31 0 0115.23 2.42 39.22 39.22 0 016.73 3.79c2 1.4 4 2.81 6 4.26 3.63 2.63 7.08 5.47 10.55 8.13-1.11 4.22-2.09 8.58-3.34 12.88-.66 2.36-1.37 4.69-2.09 7a40.54 40.54 0 01-3 7.12A31 31 0 01344 226.6a26.84 26.84 0 01-14.76 4.26 15.29 15.29 0 01-7.73-2.05 8.09 8.09 0 01-3-3.16 7.3 7.3 0 01-.67-4.28 10.25 10.25 0 013.54-7.26 9.64 9.64 0 017.85-1.79 12.62 12.62 0 016.75 4 27.16 27.16 0 013.89 6.46 122.87 122.87 0 017.91 22.83 123.93 123.93 0 01-7.16 23.06 27.67 27.67 0 01-3.68 6.59 12.64 12.64 0 01-6.62 4.24 9.64 9.64 0 01-7.91-1.53 10.3 10.3 0 01-3.77-7.14 7.36 7.36 0 01.53-4.3 8.14 8.14 0 012.9-3.26 15.31 15.31 0 017.66-2.3 26.83 26.83 0 0114.88 3.78 31.15 31.15 0 0110.91 10.91 40.85 40.85 0 013.22 7c.79 2.31 1.58 4.62 2.31 6.95 1.39 4.26 2.51 8.59 3.76 12.77-3.38 2.77-6.74 5.72-10.28 8.47-1.91 1.51-3.87 3-5.82 4.45a41.17 41.17 0 01-6.6 4 31.08 31.08 0 01-15.11 2.98 26.86 26.86 0 01-14.44-5.22 15.32 15.32 0 01-5.05-6.21 8.07 8.07 0 01-.57-4.33 7.36 7.36 0 012-3.85 10.25 10.25 0 017.13-3.79 9.63 9.63 0 017.4 3.17 12.6 12.6 0 013.1 7.22 27.58 27.58 0 01-.65 7.52 123.48 123.48 0 01-7 23.11 123.34 123.34 0 01-19.35 14.45 27.57 27.57 0 01-6.85 3.17 12.67 12.67 0 01-7.85-.46 9.6 9.6 0 01-5.49-5.89 10.2 10.2 0 011.14-8 7.25 7.25 0 012.88-3.17 8.15 8.15 0 014.27-.94 15.38 15.38 0 017.55 2.64 26.82 26.82 0 019.78 11.83 31 31 0 012.41 15.24 39.83 39.83 0 01-1.52 7.57c-.72 2.34-1.44 4.67-2.22 7-1.37 4.26-3 8.42-4.47 12.54-4.36.25-8.81.67-13.28.81-2.44.1-4.89.14-7.33.18a40.84 40.84 0 01-7.7-.64 31 31 0 01-14-6.55 26.88 26.88 0 01-8.55-12.68 15.44 15.44 0 01-.44-8 8.14 8.14 0 012.09-3.84 7.27 7.27 0 013.86-1.95 10.22 10.22 0 018 1.12 9.65 9.65 0 014.13 6.91 12.66 12.66 0 01-1.74 7.67 27.48 27.48 0 01-5 5.7A123.65 123.65 0 01240 399.15a123.35 123.35 0 01-24.15.31 27.49 27.49 0 01-7.4-1.46 12.6 12.6 0 01-6.08-5 9.63 9.63 0 01-1-8 10.27 10.27 0 015.63-5.79 7.34 7.34 0 014.25-.82 8.05 8.05 0 014 1.75 15.34 15.34 0 014.56 6.57 26.83 26.83 0 011 15.33 31.06 31.06 0 01-7 13.74 40.64 40.64 0 01-5.68 5.23c-1.95 1.47-3.91 2.94-5.9 4.35-3.62 2.64-7.39 5-11 7.52-3.68-2.36-7.53-4.64-11.23-7.16-2-1.35-4-2.76-6-4.16a39.93 39.93 0 01-5.85-5A31.06 31.06 0 01160.7 403a26.77 26.77 0 01.5-15.35 15.43 15.43 0 014.34-6.72 8.24 8.24 0 013.94-1.88 7.35 7.35 0 014.27.69 10.26 10.26 0 015.81 5.61 9.64 9.64 0 01-.72 8 12.66 12.66 0 01-5.92 5.18 27.6 27.6 0 01-7.35 1.7 124.13 124.13 0 01-24.15.52zM85.91 394l9.68.53c2.39.13 4.78.2 7.18.27a36 36 0 006.75-.48 26.83 26.83 0 0012.11-5.5 23.34 23.34 0 007.57-10.9c1.35-4.07 1-9.45-3.34-10.05a7.39 7.39 0 00-6 .8 7.18 7.18 0 00-3 5.21 9.74 9.74 0 001.57 6.18 25.33 25.33 0 004.71 5.06 84.78 84.78 0 0019.09 12.79 84.62 84.62 0 0023 .13 25.76 25.76 0 006.74-1.54 9.79 9.79 0 004.77-4.24 7.19 7.19 0 00.45-6 7.46 7.46 0 00-4.48-4c-3.9-1.92-7.23 2.33-8.41 6.46a23.29 23.29 0 00.15 13.26 26.76 26.76 0 006.94 11.35 36.36 36.36 0 005.32 4.19c2 1.28 4 2.57 6.09 3.81l8.31 5 8.14-5.26c2-1.3 4-2.65 6-4a35.62 35.62 0 005.18-4.35 26.76 26.76 0 006.57-11.58 23.2 23.2 0 00-.28-13.26c-1.3-4.09-4.77-8.22-8.61-6.18a7.43 7.43 0 00-4.34 4.16 7.18 7.18 0 00.64 6 9.84 9.84 0 004.9 4.09 26.3 26.3 0 006.79 1.32 85.35 85.35 0 0023-.87 85.32 85.32 0 0018.63-13.4 25.85 25.85 0 004.55-5.21 9.78 9.78 0 001.36-6.23 7.19 7.19 0 00-3.15-5.1 7.42 7.42 0 00-6-.62c-4.29.74-4.49 6.13-3 10.16a23.24 23.24 0 007.92 10.65 26.82 26.82 0 0012.28 5.1 35.39 35.39 0 006.76.26c2.39-.15 4.79-.29 7.17-.5l9.66-.84 3.49-9c.87-2.24 1.67-4.49 2.47-6.75a35.68 35.68 0 001.64-6.57A26.71 26.71 0 00301.4 355a23.35 23.35 0 00-8-10.56c-3.46-2.54-8.7-3.85-10.6.06a7.42 7.42 0 00-1.07 5.92 7.2 7.2 0 004 4.44 9.78 9.78 0 006.37.43 25.82 25.82 0 006.27-2.92 85.21 85.21 0 0018.06-14.2 85.16 85.16 0 007.23-21.82 25.79 25.79 0 00.61-6.89 9.72 9.72 0 00-2.56-5.84 7.19 7.19 0 00-5.55-2.28 7.44 7.44 0 00-5.2 3c-3 3.12 0 7.6 3.54 10a23.31 23.31 0 0012.67 4 26.85 26.85 0 0012.93-3.09 35.37 35.37 0 005.62-3.77c1.85-1.52 3.7-3.05 5.51-4.62l7.32-6.35-2.49-9.37c-.61-2.32-1.29-4.62-2-6.92a35.75 35.75 0 00-2.53-6.27 26.81 26.81 0 00-9-9.82 23.33 23.33 0 00-12.7-3.83c-4.29 0-9.29 2-8.53 6.28A7.41 7.41 0 00324 276a7.21 7.21 0 005.87 1.23 9.86 9.86 0 005.4-3.4 26.34 26.34 0 003.35-6 85.4 85.4 0 006.27-22.12 84.83 84.83 0 00-7-21.89 26 26 0 00-3.55-5.94 9.83 9.83 0 00-5.51-3.22 7.24 7.24 0 00-5.83 1.42 7.43 7.43 0 00-2.43 5.5c-.62 4.3 4.44 6.16 8.74 6a23.27 23.27 0 0012.57-4.24 26.81 26.81 0 008.65-10.1 36.3 36.3 0 002.33-6.36c.6-2.32 1.2-4.63 1.74-7l2.19-9.44-7.52-6.12c-1.86-1.51-3.76-3-5.66-4.44a36.14 36.14 0 00-5.74-3.58 26.82 26.82 0 00-13-2.67 23.3 23.3 0 00-12.58 4.37c-3.48 2.5-6.34 7.08-3.21 10.09a7.4 7.4 0 005.29 2.85 7.22 7.22 0 005.48-2.45 9.87 9.87 0 002.37-5.93 26.05 26.05 0 00-.84-6.86 85 85 0 00-7.93-21.57 84.87 84.87 0 00-18.52-13.61 25.72 25.72 0 00-6.35-2.71 9.78 9.78 0 00-6.35.62 7.22 7.22 0 00-3.88 4.58 7.43 7.43 0 001.26 5.88c2 3.84 7.22 2.37 10.59-.28a23.21 23.21 0 007.68-10.82 26.78 26.78 0 001.06-13.26 35.36 35.36 0 00-1.85-6.51c-.87-2.23-1.75-4.46-2.69-6.67l-3.78-8.92-9.68-.53c-2.39-.13-4.78-.2-7.18-.27a36 36 0 00-6.75.48 26.83 26.83 0 00-12.11 5.5 23.34 23.34 0 00-7.57 10.9c-1.35 4.07-1 9.45 3.33 10a7.41 7.41 0 006-.8 7.22 7.22 0 003-5.21 9.8 9.8 0 00-1.57-6.18 25.33 25.33 0 00-4.71-5.06 85 85 0 00-19.09-12.79 84.62 84.62 0 00-23-.13 25.67 25.67 0 00-6.74 1.54 9.75 9.75 0 00-4.77 4.24 7.19 7.19 0 00-.45 6 7.46 7.46 0 004.48 4c3.9 1.92 7.23-2.33 8.4-6.46a23.21 23.21 0 00-.21-13.21 26.64 26.64 0 00-6.9-11.35 36.36 36.36 0 00-5.32-4.19c-2-1.28-4-2.57-6.1-3.81l-8.3-5-8.14 5.26c-2 1.3-4 2.65-6 4a35.62 35.62 0 00-5.18 4.35 26.78 26.78 0 00-6.57 11.57 23.28 23.28 0 00.29 13.26c1.3 4.09 4.77 8.22 8.6 6.18a7.42 7.42 0 004.35-4.16 7.18 7.18 0 00-.64-6 9.84 9.84 0 00-4.9-4.09 26.3 26.3 0 00-6.79-1.32 85.44 85.44 0 00-23 .87 85.49 85.49 0 00-18.66 13.41 25.85 25.85 0 00-4.55 5.21 9.78 9.78 0 00-1.36 6.23A7.14 7.14 0 00116 130a7.42 7.42 0 006 .62c4.28-.74 4.49-6.13 3-10.16a23.31 23.31 0 00-7.92-10.65 26.82 26.82 0 00-12.28-5.1 35.5 35.5 0 00-6.77-.26c-2.39.15-4.78.29-7.17.5l-9.65.84-3.49 9c-.87 2.24-1.67 4.49-2.48 6.75a35.65 35.65 0 00-1.63 6.57 26.7 26.7 0 001.49 13.22 23.28 23.28 0 008 10.56c3.46 2.54 8.7 3.85 10.6-.06a7.46 7.46 0 001.12-5.83 7.18 7.18 0 00-4-4.44 9.75 9.75 0 00-6.36-.43 25.82 25.82 0 00-6.3 2.87 85.27 85.27 0 00-18.07 14.2 85.14 85.14 0 00-7.22 21.82 26.23 26.23 0 00-.62 6.89 9.79 9.79 0 002.57 5.84 7.18 7.18 0 005.54 2.28 7.44 7.44 0 005.21-3c3-3.12 0-7.6-3.55-10a23.25 23.25 0 00-12.66-4 26.85 26.85 0 00-12.93 3.09A35.92 35.92 0 0030.8 185c-1.85 1.52-3.69 3.05-5.5 4.62l-7.3 6.3 2.49 9.37c.61 2.32 1.29 4.62 2 6.92a35.78 35.78 0 002.51 6.27 26.87 26.87 0 009 9.82 23.39 23.39 0 0012.71 3.83c4.29 0 9.29-2 8.53-6.28a7.42 7.42 0 00-2.61-5.42 7.21 7.21 0 00-5.87-1.23 9.82 9.82 0 00-5.4 3.4 25.84 25.84 0 00-3.36 6.05 84.83 84.83 0 00-6.27 22.11 84.83 84.83 0 007 21.89 26 26 0 003.55 5.94 9.8 9.8 0 005.5 3.22 7.22 7.22 0 005.83-1.42 7.4 7.4 0 002.44-5.5c.62-4.3-4.45-6.16-8.74-6a23.25 23.25 0 00-12.57 4.24 26.89 26.89 0 00-8.74 10.1 35.52 35.52 0 00-2.33 6.36c-.6 2.32-1.2 4.63-1.74 7L19.76 306l7.52 6.12c1.86 1.51 3.76 3 5.65 4.44a36.23 36.23 0 005.75 3.58 26.8 26.8 0 0013 2.67 23.27 23.27 0 0012.52-4.37c3.49-2.5 6.35-7.08 3.22-10.09a7.4 7.4 0 00-5.3-2.85 7.2 7.2 0 00-5.44 2.5 9.81 9.81 0 00-2.37 5.93 26.05 26.05 0 00.84 6.86 84.6 84.6 0 007.93 21.57 84.63 84.63 0 0018.52 13.56 26 26 0 006.4 2.72 9.85 9.85 0 006.3-.64 7.22 7.22 0 003.88-4.58 7.43 7.43 0 00-1.26-5.88c-2-3.84-7.22-2.37-10.6.28a23.27 23.27 0 00-7.67 10.82 26.78 26.78 0 00-1.06 13.26 35.33 35.33 0 001.84 6.51c.88 2.23 1.76 4.46 2.69 6.67z" fill="url(#a)"/><path d="M85.1 395.17a44.85 44.85 0 005.16.75 62.41 62.41 0 0020.74-1.87 1.66 1.66 0 11.8 3.23h-.11c-7.09 1.29-14.43 2.06-21.69 1.14a53.63 53.63 0 01-6.37-1.18 55.17 55.17 0 01-3.28-5.59c-3.33-6.52-5.1-13.69-6.3-20.79v-.11a1.66 1.66 0 113.31-.35 62.47 62.47 0 005.28 20.14 43.46 43.46 0 002.46 4.63z" fill="url(#b)"/><path d="M18.43 306.46a44.3 44.3 0 003.73 3.65A62.61 62.61 0 0040 320.79a1.66 1.66 0 11-1.25 3.08l-.1-.05C32.19 320.7 25.8 317 20.47 312a53.59 53.59 0 01-4.46-4.7 55.23 55.23 0 01.63-6.45c1.14-7.23 3.92-14.07 7.13-20.52l.05-.1a1.66 1.66 0 112.88 1.67 62.57 62.57 0 00-7.56 19.4 42.56 42.56 0 00-.71 5.16z" fill="url(#c)"/><path d="M16.63 195.51a42.61 42.61 0 00.88 5.15 62.42 62.42 0 008.19 19.14 1.67 1.67 0 11-2.83 1.76l-.05-.09c-3.42-6.35-6.43-13.1-7.79-20.28a57.4 57.4 0 01-.85-6.43 53.74 53.74 0 014.31-4.84c5.16-5.19 11.44-9.08 17.83-12.42l.1-.05a1.66 1.66 0 011.35 3 62.65 62.65 0 00-17.52 11.25 43 43 0 00-3.62 3.81z" fill="url(#d)"/><path d="M80.39 104.69a43.31 43.31 0 00-2.32 4.68 62.52 62.52 0 00-4.62 20.31 1.66 1.66 0 01-3.32-.24.37.37 0 010-.11c1-7.14 2.5-14.37 5.62-21a56 56 0 013.09-5.69 53.54 53.54 0 016.34-1.39c7.22-1.16 14.59-.62 21.71.44h.11a1.67 1.67 0 01-.69 3.26 62.26 62.26 0 00-20.79-1.2 42.56 42.56 0 00-5.13.94z" fill="url(#e)"/><path d="M185.36 68.7a42.41 42.41 0 00-4.63 2.42 62.67 62.67 0 00-15.68 13.71 1.66 1.66 0 11-2.54-2.15l.07-.08c5-5.21 10.47-10.15 16.88-13.67a56 56 0 015.85-2.79 55.29 55.29 0 015.94 2.6c6.53 3.31 12.17 8.07 17.32 13.12l.07.08a1.66 1.66 0 11-2.47 2.22A62.56 62.56 0 00190.06 71a43.23 43.23 0 00-4.7-2.3z" fill="url(#f)"/><path d="M291.43 101.27a44.7 44.7 0 00-5.17-.75 62.46 62.46 0 00-20.74 1.87 1.66 1.66 0 01-.79-3.23h.1c7.09-1.29 14.44-2.06 21.7-1.14a55.72 55.72 0 016.37 1.18 55.17 55.17 0 013.28 5.59c3.33 6.52 5.1 13.69 6.3 20.79v.11a1.66 1.66 0 11-3.31.35 62.47 62.47 0 00-5.28-20.14 43.46 43.46 0 00-2.46-4.63z" fill="url(#g)"/><path d="M358.1 190a43 43 0 00-3.74-3.65 62.43 62.43 0 00-17.87-10.68 1.65 1.65 0 01-.92-2.16 1.68 1.68 0 012.17-.92l.1.05c6.49 3.12 12.89 6.81 18.22 11.83a55.12 55.12 0 014.46 4.7 53.16 53.16 0 01-.64 6.45c-1.13 7.23-3.91 14.07-7.12 20.52l-.05.1a1.66 1.66 0 11-2.88-1.67 62.57 62.57 0 007.56-19.4 42.56 42.56 0 00.71-5.17z" fill="url(#h)"/><path d="M359.9 300.93a43 43 0 00-.88-5.15 62.42 62.42 0 00-8.19-19.14 1.67 1.67 0 112.83-1.76.73.73 0 000 .09c3.42 6.35 6.42 13.1 7.79 20.28a55.15 55.15 0 01.84 6.43 56.83 56.83 0 01-4.3 4.85c-5.17 5.18-11.44 9.07-17.83 12.41l-.1.05a1.66 1.66 0 01-1.35-3 62.65 62.65 0 0017.52-11.25 43 43 0 003.67-3.81z" fill="url(#i)"/><path d="M296.14 391.75a43.23 43.23 0 002.31-4.68 62.53 62.53 0 004.63-20.31 1.66 1.66 0 113.32.24v.11c-1 7.14-2.5 14.37-5.62 21a56.07 56.07 0 01-3.1 5.69 53.38 53.38 0 01-6.33 1.39c-7.22 1.16-14.59.62-21.72-.44h-.1a1.67 1.67 0 11.69-3.26 62.26 62.26 0 0020.79 1.2 43.27 43.27 0 005.13-.94z" fill="url(#j)"/><path d="M191.17 427.74a42.41 42.41 0 004.63-2.42 62.63 62.63 0 0015.67-13.71 1.67 1.67 0 112.55 2.15l-.07.08c-5 5.21-10.47 10.15-16.89 13.67a54.14 54.14 0 01-5.85 2.79 56 56 0 01-5.93-2.6c-6.53-3.31-12.17-8.07-17.32-13.12l-.08-.08a1.66 1.66 0 012.48-2.22 62.39 62.39 0 0016.11 13.19 43.23 43.23 0 004.7 2.27z" fill="url(#k)"/><path d="M83 398.16a1.05 1.05 0 01-.14.84 1.11 1.11 0 01-.79.49 1.08 1.08 0 01.2-.91 1 1 0 01.73-.42z" fill="url(#l)"/><path d="M15 307.65a1.1 1.1 0 01-1.54.53 1.08 1.08 0 01.69-.63 1.13 1.13 0 01.85.1z" fill="url(#m)"/><path d="M13.13 194.44a1.1 1.1 0 01-.84.12 1 1 0 01-.71-.6 1.07 1.07 0 011.55.48z" fill="url(#n)"/><path d="M78.19 101.77a1.15 1.15 0 01-.75-.39 1.06 1.06 0 01-.22-.91 1.09 1.09 0 01.8.47 1 1 0 01.17.83z" fill="url(#o)"/><path d="M185.3 65a1.08 1.08 0 01-.38-.76.51.51 0 11.73 0 1.09 1.09 0 01-.35.76z" fill="url(#p)"/><path d="M293.53 98.28a1.08 1.08 0 01.94-1.33 1.08 1.08 0 01-.2.91 1 1 0 01-.74.42z" fill="url(#q)"/><path d="M361.56 188.79a1.08 1.08 0 11.84.1 1.11 1.11 0 01-.84-.1z" fill="url(#r)"/><path d="M363.4 302a1.08 1.08 0 01.83-.12 1.07 1.07 0 01.72.6 1.12 1.12 0 01-.93.1 1.08 1.08 0 01-.62-.58z" fill="url(#s)"/><path d="M298.34 394.67a1.15 1.15 0 01.75.39 1.13 1.13 0 01.22.91 1.11 1.11 0 01-.81-.47 1.07 1.07 0 01-.16-.83z" fill="url(#t)"/><path d="M191.23 431.4a1.08 1.08 0 01.38.76.51.51 0 11-.73 0 1.09 1.09 0 01.35-.76z" fill="url(#u)"/><path d="M133 428.21c-13.16-7.3-23.3-18.84-33.23-30.14-3.17-3.6-6.25-7.11-9.38-10.43-4.19-1.81-8.53-3.52-13-5.28-14-5.5-28.3-11.12-39.63-21-6.35-13.64-7.78-28.94-9.17-43.92-.44-4.77-.88-9.43-1.45-13.95-2.32-3.93-4.84-7.87-7.42-11.91-8.1-12.69-16.36-25.65-19.72-40.31 2.88-14.77 10.72-28 18.4-40.92 2.44-4.12 4.83-8.14 7-12.14.43-4.54.71-9.2 1-14 .91-15 1.84-30.35 7.74-44.19 11-10.25 25.12-16.33 38.94-22.29 4.4-1.9 8.69-3.75 12.82-5.69 3-3.43 6-7 9-10.74 9.56-11.61 19.33-23.47 32.24-31.2 14.93-1.82 29.92 1.55 44.6 4.86 4.67 1 9.23 2.08 13.71 2.92 4.46-1 9-2.16 13.62-3.37 14.57-3.78 29.44-7.63 44.42-6.29 13.15 7.3 23.3 18.84 33.23 30.14 3.16 3.6 6.25 7.11 9.38 10.43 4.18 1.81 8.53 3.52 13 5.28 14 5.5 28.3 11.12 39.64 21 6.39 13.66 7.81 28.93 9.26 43.93.44 4.77.87 9.43 1.45 14 2.32 3.93 4.84 7.87 7.42 11.91 8.09 12.69 16.35 25.64 19.71 40.3-2.88 14.77-10.72 28-18.4 40.92-2.45 4.12-4.83 8.14-7 12.14-.43 4.54-.72 9.21-1 14-.91 15-1.84 30.35-7.74 44.19-11 10.26-25.12 16.34-38.94 22.29-4.4 1.9-8.69 3.75-12.82 5.7-3 3.42-6 7-9 10.73-9.57 11.61-19.33 23.47-32.24 31.2-14.93 1.82-29.92-1.55-44.6-4.86-4.68-1.05-9.23-2.07-13.72-2.92-4.45 1-9 2.16-13.61 3.37-14.67 3.73-29.51 7.58-44.51 6.24zm-42.13-41.27c3.17 3.37 6.3 6.93 9.51 10.58 9.84 11.19 19.89 22.62 32.86 29.87 14.81 1.28 29.54-2.54 44-6.28 4.71-1.22 9.29-2.41 13.81-3.41 4.55.86 9.17 1.9 13.91 3 14.54 3.28 29.38 6.61 44.14 4.85 12.74-7.66 22.41-19.41 31.88-30.91 3.09-3.76 6.1-7.41 9.16-10.88 4.19-2 8.54-3.86 13-5.78 13.69-5.9 27.65-11.92 38.56-22 5.8-13.69 6.72-28.88 7.62-43.75.29-4.85.57-9.58 1-14.19 2.22-4.06 4.63-8.14 7.12-12.32 7.6-12.81 15.36-25.89 18.24-40.48-3.35-14.48-11.53-27.3-19.55-39.86-2.61-4.1-5.16-8.1-7.51-12.08-.59-4.59-1-9.31-1.48-14.15-1.38-14.84-2.79-30-9-43.48-11.23-9.74-25.38-15.31-39.25-20.76-4.53-1.78-8.94-3.51-13.18-5.35-3.18-3.37-6.3-6.93-9.52-10.58-9.83-11.19-19.88-22.62-32.85-29.87-14.81-1.28-29.54 2.54-44 6.28-4.71 1.22-9.29 2.41-13.81 3.41-4.55-.85-9.17-1.9-13.92-3-14.53-3.28-29.38-6.61-44.13-4.85-12.74 7.67-22.41 19.41-31.88 30.91-3.09 3.76-6.1 7.42-9.16 10.88-4.19 2-8.54 3.86-13 5.78-13.69 5.9-27.66 11.92-38.56 22-5.8 13.69-6.72 28.88-7.62 43.75-.29 4.85-.58 9.58-1 14.19-2.22 4.06-4.64 8.14-7.12 12.32-7.6 12.81-15.36 25.9-18.25 40.48 3.36 14.48 11.54 27.3 19.55 39.86 2.62 4.1 5.17 8.1 7.52 12.08.59 4.59 1 9.31 1.48 14.15 1.38 14.84 2.79 30 9 43.48 11.22 9.74 25.38 15.31 39.25 20.76 4.52 1.78 8.93 3.51 13.18 5.35z" fill="url(#v)"/><path d="M173.93 374.78a127.37 127.37 0 11140.89-112.23 127.51 127.51 0 01-140.89 112.23zm28.25-249.48a123.71 123.71 0 10109 136.84 123.84 123.84 0 00-109-136.84z" fill="url(#w)"/><path d="M261.33 290.72l.14-.13c22.22-19.43 17.6-54.9 17.6-54.9-1.25 6.86-18.92 15.92-38.9 20.47 8.15-12.77 13.84-31.68 13.29-59.66-7.15 0-20.44 6.7-32.44 16.87-3.53-16.29-16.13-32.82-32.5-50.42-6 3.92-26.71 27.31-31.82 51.45-12.33-10.77-26.29-17.92-33.63-17.9 0 25.15 3.5 44.88 13.05 59.59-19.83-4.57-37.46-13.54-38.67-20.4-2.42 9.79.62 38.79 17.75 55-9.36 3.57-18.28 7.87-19.28 9.27 13.67 24.88 35.71 21.57 54.22 12.14-7.52-3.91-6.44-9.88-5.88-12.82.42-1.31.75-2.41-.36-1.7-2.75 1.39-4.55 1.75-5.89 1.58-3.23-.38-3.83-3.78-9-2.95-.08-2.64 5.13-1.62 5.13-1.62-.92-2.11-.64-7.46-.24-9.14l1.3-.22c1.54 3.15 7.34 5.6 7.56 5.44 7.87 3 7.85-1.81 14.62-6.94a19.79 19.79 0 005.06-5.94c.19-.32.3-.53.3-.53v-23.12c-1-4.8 2.31-7.86 6.93-9.91l.24-.1a120 120 0 0112.21-3.57c-.3-2 .86-7.3-1.28-8.62-1.83 1-3.41-6.65-1.71-6.66-1.08-10.5 2.69-14.39 9.36-14.43s10.43 3.92 9.35 14.43c1.71 0 .13 7.64-1.71 6.66-2.13 1.33-1 6.62-1.28 8.62a118.44 118.44 0 0112 3.48l.23.09c4.75 2 8.21 5 7.19 10v23.14l.41.73c1 2.39 6.09 6.91 9.38 9.8l2.75 2.52c1.78 2.7 11.42.71 14.91-5l1.41.26c.33 1.6.65 7-.27 9 0 0 5.21-1 5.13 1.62-5.12-.83-5.73 2.57-9 2.95-1.35.17-3.14-.19-5.89-1.58-1.06-.68-.76.4-.36 1.7.57 3 1.64 9-6.14 12.92 18.47 9.33 40.36 12.49 54-12.27-.79-1.24-9.85-5.61-19.27-9.2z" fill="url(#x)"/><path d="M216.71 294.2l-.49-.32a21.6 21.6 0 01-7.74-9.3 26.34 26.34 0 01-1.76-9.41.45.45 0 010 .08 8.9 8.9 0 00-.23 1.14c0 .13-.05.26-.07.38a39.55 39.55 0 00-.74 9.5c-.1 5.22 1.58 8.78 4.28 11l.19.16c2.67 2.33 6.6 3.31 12 2.44l.55-.09c.28 0 .55-.09.83-.15a8 8 0 003.93-1.07 36.64 36.64 0 01-10.75-4.36z" fill="url(#y)"/><path d="M175.53 281.92a22.78 22.78 0 00-.21-2.36c0-.35-.09-.67-.12-.94a.77.77 0 010-.15q-.06-.47-.12-.87v-.3c-.12-.8-.23-1.46-.33-1.89a.14.14 0 000-.06.13.13 0 000-.06v-.13.96a35.5 35.5 0 01-.51 4.45 1.16 1.16 0 000 .18 24.65 24.65 0 01-4.54 9.12 1.15 1.15 0 01-.14.17 23.34 23.34 0 01-5.17 4.4 32.56 32.56 0 01-10.32 4.1h.14l.19.06h.13c10.29 3.34 21.82 1.15 21.22-12.85a26.85 26.85 0 00-.22-3.83z" fill="url(#z)"/><g clip-path="url(#A)"><path fill="#f9b233" d="M398.99 144.12h452.68V344.8H398.99z"/></g></g></svg>