<?xml version="1.0" encoding="UTF-8"?>
<svg xmlns="http://www.w3.org/2000/svg" xmlns:xlink="http://www.w3.org/1999/xlink" width="150pt" height="150pt" viewBox="0 0 150 150" version="1.1">
<g id="surface1704059">
<path style=" stroke:none;fill-rule:nonzero;fill:rgb(100%,100%,100%);fill-opacity:1;" d="M 75 6 C 36.929688 6 6 36.929688 6 75 C 6 113.070312 36.929688 144 75 144 C 113.070312 144 144 113.070312 144 75 C 144 36.929688 113.070312 6 75 6 Z M 75 12 C 109.828125 12 138 40.171875 138 75 C 138 109.828125 109.828125 138 75 138 C 40.171875 138 12 109.828125 12 75 C 12 40.171875 40.171875 12 75 12 Z M 76.710938 33 C 53.777344 33 39 49.257812 39 64.945312 C 39 80.25 47.472656 83.84375 49.25 84.875 C 51.019531 85.910156 52.28125 85.179688 52.675781 83.773438 L 53.742188 79.492188 C 53.742188 79.492188 54.238281 78.359375 53.257812 77.171875 C 52.046875 75.714844 49.4375 73.058594 49.4375 66.445312 C 49.4375 54.648438 58.75 41.800781 75.632812 41.800781 C 92.203125 41.800781 97.882812 52.59375 97.882812 61.523438 C 97.882812 72.628906 92.558594 89.230469 81.328125 89.230469 C 74.351562 89.230469 72.347656 83.851562 72.347656 81.214844 C 72.300781 80.324219 72.503906 79.429688 72.59375 79 C 72.679688 78.578125 75.515625 69.546875 76.417969 66.328125 C 78.445312 59.113281 76.710938 53.109375 70.078125 53.109375 C 60.726562 53.109375 57.359375 66.269531 61.464844 74.6875 L 54.792969 102.011719 C 54.792969 102.011719 53.871094 106.484375 53.691406 109.125 C 53.414062 113.179688 53.988281 119.171875 54.1875 120.960938 C 54.332031 122.257812 54.335938 122.878906 54.925781 122.992188 C 55.515625 123.109375 56.519531 122.109375 57.335938 120.90625 C 58.355469 119.394531 61.824219 114.496094 63.234375 111.378906 C 64.492188 108.601562 64.714844 108.527344 66.015625 103.605469 C 67.320312 98.679688 69.074219 91.757812 69.074219 91.757812 C 69.074219 91.757812 72.738281 98.167969 82.628906 98.167969 C 96.695312 98.167969 111 85.917969 111 63.015625 C 111 44.453125 94.917969 33 76.710938 33 Z M 76.710938 33 "/>
</g>
</svg>
