<?xml version="1.0" encoding="UTF-8"?>
<svg xmlns="http://www.w3.org/2000/svg" xmlns:xlink="http://www.w3.org/1999/xlink" width="150pt" height="150pt" viewBox="0 0 150 150" version="1.1">
<g id="surface1628371">
<path style=" stroke:none;fill-rule:nonzero;fill:rgb(100%,100%,100%);fill-opacity:1;" d="M 90.421875 6 C 80.609375 6 72.136719 8.992188 66.1875 14.898438 C 60.238281 20.808594 57 29.472656 57 40.101562 L 57 54 L 39 54 C 37.34375 54 36 55.34375 36 57 L 36 81 C 36 82.65625 37.34375 84 39 84 L 57 84 L 57 141 C 57 142.65625 58.34375 144 60 144 L 84 144 C 85.65625 144 87 142.65625 87 141 L 87 84 L 108 84 C 109.511719 84 110.789062 82.875 110.976562 81.375 L 113.976562 57.375 C 114.085938 56.519531 113.820312 55.660156 113.25 55.015625 C 112.679688 54.371094 111.859375 54 111 54 L 87 54 L 87 42 C 87 38.648438 89.648438 36 93 36 L 111 36 C 112.65625 36 114 34.65625 114 33 L 114 10.039062 C 114 8.535156 112.882812 7.261719 111.390625 7.066406 C 108.742188 6.714844 99.171875 6 90.421875 6 Z M 90.421875 12 C 97.734375 12 104.804688 12.585938 108 12.882812 L 108 30 L 93 30 C 86.40625 30 81 35.40625 81 42 L 81 57 C 81 58.65625 82.34375 60 84 60 L 107.601562 60 L 105.351562 78 L 84 78 C 82.34375 78 81 79.34375 81 81 L 81 138 L 63 138 L 63 81 C 63 79.34375 61.65625 78 60 78 L 42 78 L 42 60 L 60 60 C 61.65625 60 63 58.65625 63 57 L 63 40.101562 C 63 30.667969 65.761719 23.78125 70.417969 19.15625 C 75.074219 14.527344 81.808594 12 90.421875 12 Z M 90.421875 12 "/>
</g>
</svg>
